<?xml version="1.0" encoding="UTF-8"?>
<svg id="b" data-name="Layer 2" xmlns="http://www.w3.org/2000/svg" viewBox="0 0 120 119.79">
  <defs>
    <style>
      .e {
        fill: #3e8e41;
      }
    </style>
  </defs>
  <g id="c" data-name="Layer 1">
    <g id="d" data-name="120x120">
      <g>
        <path class="e" d="M36.79,110.3c-2.91-1.31-6.78-2.44-9.26-4.48-3.21-2.89-5.02-16.98-4.66-24.67,0-10.39,0-20.78,0-31.15-.03-4.67.17-22.69,6.65-19.7,2.81,1.33,6.42,2.31,8.79,4.3,3.21,2.89,5.1,17,4.73,24.69,0,10.39,0,20.78,0,31.15.05,4.02-.17,21.54-6.08,19.9l-.16-.05ZM37.83,54.87c-.09-4.22-1.53-5.05-5.29-6.55-3.51-1.78-4.33-1.26-4.51,2.71-.09,5.9,0,11.81-.04,17.72,0,4.78,0,9.53,0,14.34.06,2.05-.06,4.68,1,6.44,1.21,1.64,3.88,2.25,5.79,3.22,2.23,1.11,2.87-.43,3.01-2.48.25-11.74.1-23.41.06-35.14l-.02-.26Z"/>
        <path class="e" d="M61.79,119.59c-4.42-15.92-6.91-33.01-10.68-49.2-.34-.67-.25,1.56-.27,1.96,0,13.84.02,27.74-.01,41.56-.02,1.21-.34,2.6-1.81,2.23-2.11-.48-3.15-2.58-3.06-4.65-.01-23.61,0-47.22,0-70.83.02-1.04-.02-2.59.95-2.93.84-.32,2.66.5,3.51,1.55,1.11,1.32,1.16,3.22,1.5,4.91,2.81,13.56,5.49,27.18,8.66,40.64.32,1.25.56,1.73.61.12.06-13.17-.03-26.41.04-39.56.06-.93.22-1.74.68-2.47.88-1.46,3.79-2.92,4.12-.32.25,24.19.02,48.45.08,72.65-.04.95-.17,1.77-.59,2.55-.7,1.37-2.81,2.37-3.61,1.86l-.1-.07Z"/>
        <path class="e" d="M83,111.01c-3.61,1.68-7,3.14-10.59,4.75-2.06,1-3.35.56-3.29-1.94.12-4.26-.29-7.93.2-12.23.3-1.3,1.24-2.28,2.4-2.87,3.01-1.41,5.47-2.44,8.53-3.84,1.25-.59,2.58-1.2,3.12-2.54.98-3.22.79-7.37.39-10.71-.39-2.64-2.61-1.27-4.21-.59-1.88.64-5.12,2.96-6.57,1.68-3.84-3.99-3.76-12.34-3.95-17.72-.11-8.94.28-24.61,5.8-28.46,2.85-1.52,6.28-2.9,9.29-4.26,1.94-.88,2.88.13,2.81,2.14-.15,4.32.37,8.16-.26,12.45-1.05,3.12-4.97,3.54-7.47,4.96-2.13.96-4.1,1.63-4.57,3.77-.41,2.09-1.7,10.85,2.51,8.96,2.3-.7,4.83-2.76,7.31-2.4,4.31,1.22,5,16.22,4.73,22.31.02,4.98-.07,9.52-.91,14.5-1,6.14-2.68,9.77-3.95,11.14-.35.36-.66.54-1.19.82l-.14.07Z"/>
        <path class="e" d="M99.98,43.62c-.47.76-.57,1.78-.58,2.71,0,7,0,14.01,0,21.02-.06,11.47.13,22.96-.07,34.43-.05,2.14-2.72,4.3-4.66,3.62-.63-.37-.69-1.77-.68-2.63,0-17.93,0-35.86,0-53.78,0-.92-.11-2.41-1.05-2.54-2.22-.08-4.77,2.78-4.96-1.37-.02-3.98-.02-7.05,0-11.05-.03-1.95,1.07-3.66,2.87-4.43,4.19-1.9,7.3-3.27,11.46-5.12,1.03-.45,2.49-.85,2.9.53.49,3.29.08,6.54.21,9.67-.03,1.78.21,4.06-.8,5.45-1.05,1.67-3.46,1.73-4.54,3.33l-.11.16Z"/>
      </g>
      <path class="e" d="M119.33,34.01c1.13-2.72.37-6.13.58-8.85-.17-2.58.36-6.25-.11-8.86-4.54-1.54-36.23-9.99-51.55-14.33-2.68-.65-4.34-1.26-5.96-1.69-1.46-.39-2.98-.39-4.44,0C47.74,3.05,11.67,13.06,1.4,15.88.41,16.19-.02,16.02,0,17.16c.03,1.03.08,2.71.09,3.92,0,23.49-.02,47,.01,70.49.02,1.7.64,3.23,2.19,4.04,2.37,1.32,3.03-.58,2.94-2.63.35-7.98-.85-15.39.77-23.52.74-2.42,1.64-5.93,2.39-1.39,1.9,9.92,3.79,19.84,5.7,29.75.3,1.61,1.06,3.15,2.49,4.01,2.68,1.57,4.77,2.09,3.92-1.41-2.82-15.35-6.36-30.61-8.81-46.01-.03-1.33.23-2.71.61-4,2.49-7.94,4.24-13.17,6.7-21.09.54-1.9.06-3.36-1.44-4.14-1.9-1.08-3.8-1.44-4.72.64-2.61,7.3-4.11,12.83-6.55,20.21-.82,2.62-1.08,1.63-1.06-.45-.01-8.33.02-13.94-.01-22.32-.03-1.23-.3-2.58-1.07-3.48-.88-1.09-1.99-1.37-1.93-1.57.02-.2.86-.31,1.85-.62C13.36,15.07,48.25,5.31,57.81,2.76c1.44-.39,2.95-.38,4.4,0,15.13,4.08,47.14,13.05,54.81,15.12.27.06.47.13.68.21.08.05.09.11.03.18-1.39.97-5.46,2.41-7.56,3.49-1.92.84-2.92,2.78-2.85,4.82.14,4.04-.31,7.61.21,11.63.39,1.81,2.69.46,3.15,2.13.53,12.81.13,25.85.15,38.72-.02,2.44-2.42,3.21-3.18,5.34-.24.7-.31,1.51-.33,2.27,0,3.57,0,6.39,0,9.95.01,1.13.2,2.73,1.64,2.61,2.95-.82,6.37-2.41,9.13-3.94,1.94-1.33,1.87-3.87,1.83-6.08-.21-3.24.51-6.95-.41-10.19-.49-.91-1.81-.49-2.51-.97-.64-.43-.66-1.7-.68-2.55,0-12.05-.02-24.14.01-36.18-.19-2.41,1.59-3.55,2.91-5.16l.1-.17Z"/>
      <path class="e" d="M53.54,19.22c.66,5.57,13.67,5.24,12.76-.82-1.72-4.64-12-4.42-12.76.66v.17Z"/>
      <path class="e" d="M22.39,19.22c.66,5.57,13.67,5.24,12.76-.82-1.72-4.64-12-4.42-12.76.66v.17Z"/>
      <path class="e" d="M84.68,19.22c.77,5.07,11.04,5.29,12.76.66.91-6.06-12.11-6.39-12.76-.82v.17Z"/>
    </g>
  </g>
</svg>