<svg height="134.9909896850586" version="1.2" viewBox="-0.13019561767578125 -0.13030242919921875 134.99100494384766 134.9909896850586" width="134.99100494384766" xmlns="http://www.w3.org/2000/svg" xmlns:xlink="http://www.w3.org/1999/xlink">
<defs>
<clipPath id="clip1">
<path d="M 0 0 L 134.460938 0 L 134.460938 134.460938 L 0 134.460938 Z M 0 0 "/>
</clipPath>
</defs>
<g id="surface1">
<path d="M 55.820312 78.441406 L 49.75 67.230469 L 30.414062 102.9375 C 30.09375 103.53125 30.929688 104.367188 31.523438 104.046875 L 67.230469 84.710938 L 56.019531 78.640625 C 55.933594 78.59375 55.863281 78.527344 55.820312 78.441406 " style=" stroke:none;fill-rule:nonzero;fill:rgb(13.33313%,37.254333%,54.902649%);fill-opacity:1;"/>
<path d="M 78.640625 56.019531 L 84.710938 67.230469 L 104.046875 31.523438 C 104.367188 30.929688 103.53125 30.09375 102.9375 30.414062 L 67.230469 49.75 L 78.441406 55.820312 C 78.527344 55.863281 78.59375 55.933594 78.640625 56.019531 " style=" stroke:none;fill-rule:nonzero;fill:rgb(13.33313%,37.254333%,54.902649%);fill-opacity:1;"/>
<path d="M 56.019531 55.820312 L 67.230469 49.75 L 31.523438 30.414062 C 30.929688 30.09375 30.09375 30.929688 30.414062 31.523438 L 49.75 67.230469 L 55.820312 56.019531 C 55.863281 55.933594 55.933594 55.863281 56.019531 55.820312 " style=" stroke:none;fill-rule:nonzero;fill:rgb(13.33313%,37.254333%,54.902649%);fill-opacity:1;"/>
<path d="M 84.710938 67.230469 L 78.640625 78.441406 C 78.59375 78.527344 78.527344 78.59375 78.441406 78.640625 L 67.230469 84.710938 L 102.9375 104.046875 C 103.53125 104.367188 104.367188 103.53125 104.046875 102.9375 Z M 84.710938 67.230469 " style=" stroke:none;fill-rule:nonzero;fill:rgb(13.33313%,37.254333%,54.902649%);fill-opacity:1;"/>
<g clip-path="url(#clip1)" clip-rule="nonzero">
<path d="M 67.292969 72.769531 C 64.234375 72.769531 61.753906 70.289062 61.753906 67.230469 C 61.753906 64.171875 64.234375 61.691406 67.292969 61.691406 C 70.351562 61.691406 72.832031 64.171875 72.832031 67.230469 C 72.832031 70.289062 70.351562 72.769531 67.292969 72.769531 M 134.070312 66.648438 L 87 47.460938 L 67.8125 0.390625 C 67.597656 -0.128906 66.863281 -0.128906 66.648438 0.390625 L 47.460938 47.460938 L 0.390625 66.648438 C -0.128906 66.863281 -0.128906 67.597656 0.390625 67.8125 L 47.460938 87 L 66.648438 134.070312 C 66.863281 134.589844 67.597656 134.589844 67.8125 134.070312 L 87 87 L 134.070312 67.8125 C 134.589844 67.597656 134.589844 66.863281 134.070312 66.648438 " style=" stroke:none;fill-rule:nonzero;fill:rgb(1.176453%,19.607544%,27.058411%);fill-opacity:1;"/>
</g>
<path d="M 67.292969 72.769531 C 64.234375 72.769531 61.753906 70.289062 61.753906 67.230469 C 61.753906 64.171875 64.234375 61.691406 67.292969 61.691406 C 70.351562 61.691406 72.832031 64.171875 72.832031 67.230469 C 72.832031 70.289062 70.351562 72.769531 67.292969 72.769531 M 102.9375 30.414062 C 102.9375 30.414062 78.113281 43.734375 61.808594 52.8125 C 55.753906 56.183594 50.910156 61.917969 51.972656 69.464844 C 52.910156 76.148438 58.28125 81.53125 64.964844 82.484375 C 72.484375 83.558594 78.367188 78.839844 81.609375 72.75 C 89.089844 58.707031 104.046875 31.523438 104.046875 31.523438 C 104.367188 30.929688 103.53125 30.09375 102.9375 30.414062 " style=" stroke:none;fill-rule:nonzero;fill:rgb(72.941589%,23.136902%,15.686035%);fill-opacity:1;"/>
</g>
</svg>